<svg width="24" height="24" viewBox="0 0 24 24" fill="none" xmlns="http://www.w3.org/2000/svg">
<g clip-path="url(#clip0_578_1505)">
<path d="M15.1393 11.1589C15.9089 14.0312 16.1726 16.7136 15.998 18.716C15.9105 19.7205 15.7161 20.5118 15.4513 21.0622C15.1852 21.6155 14.8958 21.8357 14.6529 21.9008C14.41 21.9659 14.0493 21.9199 13.5422 21.5738C13.0377 21.2295 12.4737 20.6414 11.8956 19.8153C10.7432 18.1684 9.63039 15.7135 8.86076 12.8412C8.09113 9.96892 7.8274 7.2865 8.00199 5.28412C8.08957 4.27966 8.28396 3.48834 8.5487 2.93792C8.81483 2.38462 9.10423 2.16441 9.34712 2.09932C9.59001 2.03424 9.95075 2.08025 10.4579 2.42636C10.9624 2.77066 11.5264 3.35878 12.1044 4.18487C13.2568 5.83169 14.3696 8.2866 15.1393 11.1589Z" stroke="#3A3A3A" stroke-width="1.5"/>
<path d="M4.34196 18.1932C4.34196 18.1932 9.23122 15.3302 12.6471 14.4149C16.0629 13.4996 21.7286 13.5344 21.7286 13.5344" stroke="#3A3A3A" stroke-width="1.5" stroke-linecap="round"/>
<path d="M2.27142 10.4657C2.27142 10.4657 7.93713 10.5005 11.353 9.58522C14.7688 8.66994 19.6581 5.80696 19.6581 5.80696" stroke="#3A3A3A" stroke-width="1.5" stroke-linecap="round"/>
<circle cx="12" cy="12" r="10.25" transform="rotate(-15 12 12)" stroke="#3A3A3A" stroke-width="1.5"/>
</g>
<defs>
<clipPath id="clip0_578_1505">
<rect width="24" height="24" fill="white"/>
</clipPath>
</defs>
</svg>
