<svg width="24" height="24" viewBox="0 0 24 24" fill="none" xmlns="http://www.w3.org/2000/svg">
<g clip-path="url(#clip0_753_3333)">
<path d="M15.1393 11.1588C15.9089 14.0311 16.1726 16.7136 15.998 18.7159C15.9105 19.7204 15.7161 20.5117 15.4513 21.0621C15.1852 21.6155 14.8958 21.8357 14.6529 21.9007C14.41 21.9658 14.0493 21.9198 13.5422 21.5737C13.0377 21.2294 12.4737 20.6413 11.8956 19.8152C10.7432 18.1684 9.63039 15.7135 8.86076 12.8412C8.09113 9.96886 7.8274 7.28644 8.00199 5.28406C8.08957 4.2796 8.28396 3.48828 8.5487 2.93786C8.81483 2.38455 9.10423 2.16435 9.34712 2.09926C9.59001 2.03418 9.95075 2.08019 10.4579 2.4263C10.9624 2.7706 11.5264 3.35872 12.1044 4.18481C13.2568 5.83163 14.3696 8.28654 15.1393 11.1588Z" stroke="white" stroke-width="1.5"/>
<path d="M4.34196 18.1931C4.34196 18.1931 9.23122 15.3301 12.6471 14.4148C16.0629 13.4996 21.7286 13.5343 21.7286 13.5343" stroke="white" stroke-width="1.5" stroke-linecap="round"/>
<path d="M2.27136 10.4657C2.27136 10.4657 7.93707 10.5005 11.3529 9.58522C14.7688 8.66994 19.658 5.80696 19.658 5.80696" stroke="white" stroke-width="1.5" stroke-linecap="round"/>
<circle cx="12" cy="12" r="10.25" transform="rotate(-15 12 12)" stroke="white" stroke-width="1.5"/>
</g>
<defs>
<clipPath id="clip0_753_3333">
<rect width="24" height="24" fill="white"/>
</clipPath>
</defs>
</svg>
