<svg width="24" height="24" viewBox="0 0 24 24" fill="none" xmlns="http://www.w3.org/2000/svg">
<path d="M6.65046 0.323075C6.56286 0.369155 6.44742 0.461555 6.39678 0.530675C6.30918 0.655235 6.30462 0.729155 6.2907 2.85603C6.28158 4.43859 6.29526 5.08923 6.33222 5.18139C6.35982 5.25531 6.45678 5.37507 6.54438 5.44899C6.83958 5.70747 7.36566 5.61051 7.55934 5.25531C7.63782 5.11683 7.64238 4.93227 7.64238 2.90211C7.64238 0.742835 7.64238 0.701314 7.54542 0.572195C7.30566 0.249395 6.96438 0.152435 6.65046 0.323075Z" fill="#606060"/>
<path d="M16.7134 0.336983C16.6258 0.392423 16.5104 0.503063 16.4597 0.572183C16.3673 0.701303 16.3628 0.756743 16.3488 2.8469C16.3349 4.89554 16.3397 4.99706 16.4273 5.1953C16.5473 5.4629 16.7456 5.58746 17.064 5.58746C17.2532 5.58746 17.3316 5.56442 17.4471 5.46746C17.7332 5.22746 17.724 5.29202 17.724 2.9345C17.724 1.04282 17.7149 0.761303 17.6501 0.622823C17.484 0.272423 17.0134 0.129383 16.7134 0.336983Z" fill="#606060"/>
<path d="M2.97312 2.26561C2.35488 2.35777 1.7412 2.81929 1.446 3.41449L1.27536 3.76057L1.26144 12.9101L1.25232 22.0596L1.34928 22.3457C1.54776 22.9363 1.986 23.3976 2.5812 23.6376L2.84424 23.7437L11.8644 23.7576C18.1901 23.7667 20.9585 23.753 21.1246 23.7206C21.8398 23.5685 22.421 23.047 22.661 22.3411C22.7532 22.0596 22.7532 22.0274 22.7441 12.9103L22.7302 3.76561L22.5826 3.45193C22.2874 2.82913 21.6737 2.36761 21 2.26153C20.8339 2.23849 20.1096 2.22457 19.385 2.22913L18.0701 2.24305L18.0562 2.92129L18.0422 3.59953L19.4957 3.61345C20.88 3.62737 20.9537 3.63193 21.0737 3.72409C21.1428 3.77497 21.2443 3.87625 21.2952 3.94561C21.3876 4.07017 21.3922 4.12561 21.3922 5.83273V7.59529L11.989 7.60921L2.58576 7.61857L2.59968 5.84689C2.6136 4.13977 2.61816 4.06585 2.71032 3.94585C2.76096 3.87673 2.86248 3.77521 2.93184 3.72433C3.05184 3.63217 3.12576 3.62737 4.48224 3.61369L5.90328 3.59977L5.92176 3.17065C5.92632 2.93545 5.92632 2.62153 5.92176 2.47849L5.90328 2.22001L4.56072 2.22457C3.81744 2.22865 3.10704 2.24713 2.97312 2.26561ZM21.4058 15.4476L21.3919 21.8978L21.2858 22.0639C21.0734 22.41 21.881 22.3824 11.9933 22.3824C3.42528 22.3824 3.11136 22.3778 2.9592 22.2948C2.8716 22.2487 2.75616 22.1381 2.70552 22.0548C2.61336 21.8978 2.61336 21.8057 2.59944 15.4476L2.59008 9.00193H12.0024H21.4147L21.4058 15.4476Z" fill="#606060"/>
<path d="M5.75549 11.0736C5.49245 11.2491 5.45093 11.3688 5.45093 11.9779C5.45093 12.6007 5.50637 12.7531 5.78309 12.9238C5.92157 13.0068 6.01829 13.0159 6.86285 13.0159C7.74869 13.0159 7.79957 13.0114 7.94261 12.9099C8.25173 12.7023 8.28869 12.6053 8.28869 12.0101C8.28869 11.401 8.23325 11.2349 7.97501 11.0782C7.84109 10.9951 7.73981 10.9858 6.85853 10.9858C5.98613 10.9858 5.87549 10.9951 5.75549 11.0736Z" fill="#606060"/>
<path d="M10.8907 11.0921C10.6231 11.2721 10.5676 11.4382 10.5816 12.0473C10.5955 12.5225 10.6092 12.5964 10.7061 12.7347C10.8861 12.9883 11.0152 13.0162 12.0072 13.0162C12.9852 13.0162 13.1191 12.9886 13.3082 12.721C13.3958 12.5964 13.4097 12.5088 13.4236 12.0473C13.4373 11.4382 13.3821 11.2721 13.1145 11.0921C12.9624 10.9906 12.9208 10.986 12.0026 10.986C11.0844 10.9858 11.0428 10.9906 10.8907 11.0921Z" fill="#606060"/>
<path d="M16.0306 11.0782C15.7721 11.2351 15.7169 11.4012 15.7169 12.0101C15.7169 12.6053 15.7539 12.7023 16.063 12.9099C16.206 13.0114 16.2567 13.0159 17.1428 13.0159C17.9871 13.0159 18.084 13.0068 18.2223 12.9238C18.4992 12.7531 18.5544 12.6007 18.5544 11.9779C18.5544 11.3688 18.5129 11.2488 18.2499 11.0736C18.1299 10.9951 18.0192 10.986 17.1471 10.986C16.266 10.9858 16.1645 10.9951 16.0306 11.0782Z" fill="#606060"/>
<path d="M5.83849 14.723C5.78761 14.7415 5.67697 14.8385 5.59393 14.9306L5.44177 15.1013L5.46025 15.7195C5.47417 16.3238 5.47417 16.3332 5.60785 16.4717C5.82481 16.6977 5.91241 16.7117 6.93217 16.6977C7.97041 16.6838 8.01649 16.6701 8.20561 16.361C8.33017 16.1489 8.32561 15.2261 8.19649 15.0091C8.00737 14.6954 7.92889 14.6769 6.87697 14.6815C6.35977 14.6817 5.89393 14.7 5.83849 14.723Z" fill="#606060"/>
<path d="M10.8907 14.7831C10.6371 14.9491 10.5725 15.1337 10.5725 15.6919C10.5725 16.2502 10.6371 16.4347 10.8907 16.6008C11.0429 16.7023 11.0844 16.7069 12.0027 16.7069C12.9161 16.7069 12.9624 16.7023 13.11 16.6008C13.3685 16.4254 13.4331 16.2456 13.4331 15.6919C13.4331 15.1337 13.3685 14.9491 13.1146 14.7831C12.9624 14.6815 12.9209 14.677 12.0027 14.677C11.0844 14.677 11.0429 14.6818 10.8907 14.7831Z" fill="#606060"/>
<path d="M16.0121 14.7879C15.7721 14.954 15.7169 15.1246 15.7169 15.7152C15.7169 16.1628 15.7308 16.2413 15.823 16.3889C15.9984 16.6796 16.1182 16.7072 17.1473 16.7072C18.1208 16.7072 18.1947 16.6932 18.4162 16.4535C18.5271 16.3335 18.5316 16.3104 18.5316 15.6876V15.0464L18.3564 14.8757L18.1858 14.7003L17.18 14.6864C16.1782 14.6724 16.1782 14.6724 16.0121 14.7879Z" fill="#606060"/>
<path d="M5.79692 18.4558C5.4878 18.6449 5.47388 18.6819 5.47388 19.3877V20.029L5.64908 20.1996L5.81972 20.3748L6.80252 20.3887C7.90532 20.4072 7.99292 20.3887 8.1866 20.0796C8.2742 19.932 8.28812 19.8535 8.28812 19.3829C8.28812 18.9123 8.2742 18.8338 8.18204 18.6862C8.00204 18.3955 7.88684 18.3677 6.8486 18.3677C6.04148 18.3682 5.92148 18.3773 5.79692 18.4558Z" fill="#606060"/>
<path d="M10.8907 18.4742C10.6371 18.6403 10.5725 18.8249 10.5725 19.3831C10.5725 19.9414 10.6371 20.1259 10.8907 20.292C11.0429 20.3935 11.0844 20.3981 12.0027 20.3981C12.9209 20.3981 12.9624 20.3935 13.1146 20.292C13.3683 20.1259 13.4331 19.9414 13.4331 19.3831C13.4331 18.8249 13.3685 18.6403 13.1146 18.4742C12.9624 18.3727 12.9209 18.3682 12.0027 18.3682C11.0844 18.3682 11.0429 18.3727 10.8907 18.4742Z" fill="#606060"/>
<path d="M7.98865 2.91148V3.60364H12.0029H16.0169V2.91148V2.21932H12.0026H7.98865V2.91148Z" fill="#606060"/>
</svg>
