<svg width="24" height="24" viewBox="0 0 24 24" fill="none" xmlns="http://www.w3.org/2000/svg">
<path d="M6.65039 0.323014C6.56279 0.369094 6.44735 0.461494 6.39671 0.530614C6.30911 0.655174 6.30456 0.729094 6.29064 2.85597C6.28152 4.43853 6.29519 5.08917 6.33215 5.18133C6.35975 5.25525 6.45671 5.37501 6.54431 5.44893C6.83951 5.70741 7.36559 5.61045 7.55927 5.25525C7.63775 5.11677 7.64231 4.93221 7.64231 2.90205C7.64231 0.742774 7.64231 0.701253 7.54535 0.572134C7.30559 0.249334 6.96431 0.152374 6.65039 0.323014Z" fill="white"/>
<path d="M16.7134 0.336922C16.6258 0.392362 16.5104 0.503002 16.4597 0.572122C16.3673 0.701242 16.3628 0.756682 16.3488 2.84684C16.3349 4.89548 16.3397 4.997 16.4273 5.19524C16.5473 5.46284 16.7456 5.5874 17.064 5.5874C17.2532 5.5874 17.3316 5.56436 17.4471 5.4674C17.7332 5.2274 17.724 5.29196 17.724 2.93444C17.724 1.04276 17.7149 0.761242 17.6501 0.622762C17.484 0.272362 17.0134 0.129322 16.7134 0.336922Z" fill="white"/>
<path d="M2.97312 2.26548C2.35488 2.35764 1.7412 2.81917 1.446 3.41437L1.27536 3.76044L1.26144 12.91L1.25232 22.0595L1.34928 22.3456C1.54776 22.9362 1.986 23.3975 2.5812 23.6375L2.84424 23.7436L11.8644 23.7575C18.1901 23.7666 20.9585 23.7529 21.1246 23.7205C21.8398 23.5684 22.421 23.0468 22.661 22.341C22.7532 22.0595 22.7532 22.0273 22.7441 12.9102L22.7302 3.76548L22.5826 3.45181C22.2874 2.82901 21.6737 2.36748 21 2.2614C20.8339 2.23836 20.1096 2.22444 19.385 2.229L18.0701 2.24293L18.0562 2.92117L18.0422 3.59941L19.4957 3.61333C20.88 3.62724 20.9537 3.63181 21.0737 3.72396C21.1428 3.77485 21.2443 3.87612 21.2952 3.94548C21.3876 4.07004 21.3922 4.12548 21.3922 5.83261V7.59517L11.989 7.60909L2.58576 7.61844L2.59968 5.84677C2.6136 4.13964 2.61816 4.06573 2.71032 3.94573C2.76096 3.87661 2.86248 3.77509 2.93184 3.72421C3.05184 3.63205 3.12576 3.62724 4.48224 3.61357L5.90328 3.59965L5.92176 3.17053C5.92632 2.93533 5.92632 2.6214 5.92176 2.47836L5.90328 2.21988L4.56072 2.22445C3.81744 2.22853 3.10704 2.247 2.97312 2.26548ZM21.4058 15.4475L21.3919 21.8977L21.2858 22.0638C21.0734 22.4099 21.881 22.3823 11.9933 22.3823C3.42528 22.3823 3.11136 22.3777 2.9592 22.2947C2.8716 22.2486 2.75616 22.138 2.70552 22.0547C2.61336 21.8977 2.61336 21.8056 2.59944 15.4475L2.59008 9.00181H12.0024H21.4147L21.4058 15.4475Z" fill="white"/>
<path d="M5.75543 11.0735C5.49239 11.249 5.45087 11.3687 5.45087 11.9779C5.45087 12.6007 5.50631 12.7531 5.78303 12.9237C5.92151 13.0067 6.01823 13.0159 6.86279 13.0159C7.74863 13.0159 7.79951 13.0113 7.94255 12.9098C8.25167 12.7022 8.28863 12.6052 8.28863 12.01C8.28863 11.4009 8.23319 11.2348 7.97495 11.0781C7.84103 10.9951 7.73975 10.9857 6.85847 10.9857C5.98607 10.9857 5.87543 10.9951 5.75543 11.0735Z" fill="white"/>
<path d="M10.8907 11.092C10.6231 11.272 10.5677 11.4381 10.5816 12.0472C10.5955 12.5224 10.6092 12.5964 10.7062 12.7346C10.8862 12.9883 11.0153 13.0161 12.0072 13.0161C12.9852 13.0161 13.1191 12.9885 13.3083 12.7209C13.3959 12.5964 13.4098 12.5088 13.4237 12.0472C13.4374 11.4381 13.3822 11.272 13.1146 11.092C12.9624 10.9905 12.9209 10.986 12.0027 10.986C11.0844 10.9857 11.0429 10.9905 10.8907 11.092Z" fill="white"/>
<path d="M16.0305 11.0781C15.7721 11.2351 15.7169 11.4011 15.7169 12.01C15.7169 12.6052 15.7538 12.7022 16.0629 12.9098C16.206 13.0113 16.2566 13.0159 17.1427 13.0159C17.987 13.0159 18.084 13.0067 18.2222 12.9237C18.4992 12.7531 18.5544 12.6007 18.5544 11.9779C18.5544 11.3687 18.5129 11.2487 18.2498 11.0735C18.1298 10.9951 18.0192 10.9859 17.147 10.9859C16.266 10.9857 16.1645 10.9951 16.0305 11.0781Z" fill="white"/>
<path d="M5.83849 14.7229C5.78761 14.7414 5.67697 14.8383 5.59393 14.9305L5.44177 15.1011L5.46025 15.7194C5.47417 16.3237 5.47417 16.3331 5.60785 16.4715C5.82481 16.6976 5.91241 16.7115 6.93217 16.6976C7.97041 16.6837 8.01649 16.67 8.20561 16.3609C8.33017 16.1487 8.32561 15.2259 8.19649 15.009C8.00737 14.6953 7.92889 14.6768 6.87697 14.6814C6.35977 14.6816 5.89393 14.6999 5.83849 14.7229Z" fill="white"/>
<path d="M10.8907 14.7829C10.6371 14.949 10.5725 15.1336 10.5725 15.6918C10.5725 16.2501 10.6371 16.4346 10.8907 16.6007C11.0429 16.7022 11.0844 16.7068 12.0027 16.7068C12.9161 16.7068 12.9624 16.7022 13.11 16.6007C13.3685 16.4253 13.4331 16.2455 13.4331 15.6918C13.4331 15.1336 13.3685 14.949 13.1146 14.7829C12.9624 14.6814 12.9209 14.6769 12.0027 14.6769C11.0844 14.6769 11.0429 14.6817 10.8907 14.7829Z" fill="white"/>
<path d="M16.0121 14.7878C15.7721 14.9538 15.7169 15.1245 15.7169 15.7151C15.7169 16.1627 15.7308 16.2412 15.8229 16.3888C15.9984 16.6794 16.1181 16.707 17.1473 16.707C18.1207 16.707 18.1946 16.6931 18.4161 16.4534C18.527 16.3334 18.5316 16.3103 18.5316 15.6875V15.0462L18.3564 14.8756L18.1857 14.7002L17.1799 14.6862C16.1781 14.6723 16.1781 14.6723 16.0121 14.7878Z" fill="white"/>
<path d="M5.79698 18.4556C5.48786 18.6447 5.47394 18.6817 5.47394 19.3875V20.0288L5.64914 20.1994L5.81978 20.3746L6.80258 20.3886C7.90538 20.407 7.99298 20.3886 8.18666 20.0794C8.27426 19.9318 8.28818 19.8534 8.28818 19.3827C8.28818 18.9121 8.27426 18.8336 8.1821 18.686C8.0021 18.3954 7.8869 18.3675 6.84866 18.3675C6.04154 18.368 5.92154 18.3771 5.79698 18.4556Z" fill="white"/>
<path d="M10.8907 18.4741C10.6371 18.6402 10.5725 18.8247 10.5725 19.383C10.5725 19.9412 10.6371 20.1258 10.8907 20.2919C11.0429 20.3934 11.0844 20.3979 12.0027 20.3979C12.9209 20.3979 12.9624 20.3934 13.1146 20.2919C13.3683 20.1258 13.4331 19.9412 13.4331 19.383C13.4331 18.8247 13.3685 18.6402 13.1146 18.4741C12.9624 18.3726 12.9209 18.368 12.0027 18.368C11.0844 18.368 11.0429 18.3726 10.8907 18.4741Z" fill="white"/>
<path d="M7.98865 2.91136V3.60352H12.0029H16.0169V2.91136V2.2192H12.0026H7.98865V2.91136Z" fill="white"/>
</svg>
