<svg width="24" height="24" viewBox="0 0 24 24" fill="none" xmlns="http://www.w3.org/2000/svg">
<path d="M13.0423 23C6.95375 23 2 18.041 2 11.9454C2 7.72365 4.34744 3.93044 8.12659 2.04644C8.29666 1.96197 8.50119 1.99469 8.63504 2.1287C8.76889 2.2627 8.80334 2.46746 8.71985 2.63729C8.03029 4.04012 7.68086 5.5482 7.68086 7.11865C7.68086 12.7269 12.2379 17.2892 17.8397 17.2892C19.4256 17.2892 20.9465 16.9314 22.3614 16.2264C22.532 16.142 22.736 16.1747 22.8699 16.3087C23.0042 16.4427 23.0382 16.6475 22.9547 16.8173C21.0817 20.6304 17.2831 23 13.0423 23ZM7.41052 3.47934C4.58952 5.35273 2.88349 8.49318 2.88349 11.9454C2.88349 17.5532 7.44055 22.1155 13.0423 22.1155C16.5118 22.1155 19.6602 20.3916 21.527 17.5413C20.3484 17.9614 19.1133 18.1737 17.8402 18.1737C11.7516 18.1737 6.79781 13.2142 6.79781 7.11865C6.79781 5.86265 7.00367 4.6438 7.41052 3.47934Z" fill="white" stroke="white" stroke-width="0.8"/>
</svg>
