<svg width="24" height="24" viewBox="0 0 24 24" fill="none" xmlns="http://www.w3.org/2000/svg">
<g clip-path="url(#clip0_395_1586)">
<path fill-rule="evenodd" clip-rule="evenodd" d="M15.291 6.14413C14.1846 5.60589 12.9173 5.25 11.5 5.25C8.44517 5.25 6.08737 6.90337 4.53463 8.47245C3.7528 9.26251 3.1555 10.0502 2.75337 10.64C2.55185 10.9356 2.39814 11.1834 2.29369 11.3593C2.24143 11.4473 2.20141 11.5175 2.17382 11.5669C2.16003 11.5916 2.14933 11.6111 2.14175 11.6251L2.13273 11.6418L2.12997 11.647L2.12904 11.6487L2.12868 11.6494C2.12853 11.6497 2.1284 11.6499 2.79169 12L2.1284 11.6499C2.01278 11.869 2.01278 12.131 2.1284 12.3501L2.79169 12C2.1284 12.3501 2.12853 12.3503 2.12868 12.3506L2.12904 12.3513L2.12997 12.353L2.13273 12.3582L2.14175 12.3749C2.14933 12.3889 2.16003 12.4084 2.17382 12.4331C2.20141 12.4825 2.24143 12.5527 2.29369 12.6407C2.39814 12.8166 2.55185 13.0644 2.75337 13.36C3.1555 13.9498 3.7528 14.7375 4.53463 15.5275C5.04417 16.0424 5.6404 16.5664 6.31951 17.0381L7.27654 15.876C6.65089 15.4532 6.09107 14.9679 5.60083 14.4725C4.89828 13.7625 4.35756 13.0502 3.99277 12.515C3.85578 12.3141 3.74428 12.1391 3.65898 12C3.74428 11.8609 3.85578 11.6859 3.99277 11.485C4.35756 10.9498 4.89828 10.2375 5.60083 9.52755C7.01684 8.09663 9.0132 6.75 11.5 6.75C12.5194 6.75 13.4563 6.97626 14.3047 7.34184L15.291 6.14413ZM13.5398 8.27059C12.9343 7.93871 12.2392 7.75 11.5 7.75C9.15279 7.75 7.25 9.65279 7.25 12C7.25 13.033 7.61857 13.98 8.23138 14.7165L9.21186 13.5259C8.92011 13.0893 8.75 12.5645 8.75 12C8.75 10.4812 9.98122 9.25 11.5 9.25C11.8754 9.25 12.2332 9.32521 12.5592 9.46137L13.5398 8.27059ZM14.2469 12.1311L15.5122 10.5947C15.6662 11.0346 15.75 11.5075 15.75 12C15.75 14.3472 13.8472 16.25 11.5 16.25C11.2931 16.25 11.0896 16.2352 10.8906 16.2066L12.1548 14.6716C13.3166 14.3878 14.189 13.366 14.2469 12.1311ZM10.1432 17.1142C10.5775 17.2019 11.03 17.25 11.5 17.25C13.9868 17.25 15.9832 15.9034 17.3992 14.4725C18.1018 13.7625 18.6425 13.0502 19.0073 12.515C19.1443 12.3141 19.2558 12.1391 19.3411 12C19.2558 11.8609 19.1443 11.6859 19.0073 11.485C18.6425 10.9498 18.1018 10.2375 17.3992 9.52755C17.2198 9.34629 17.0312 9.16639 16.8334 8.99041L17.7874 7.83191C18.0281 8.04407 18.2542 8.25904 18.4654 8.47245C19.2472 9.26251 19.8445 10.0502 20.2467 10.64C20.4482 10.9356 20.6019 11.1834 20.7064 11.3593C20.7586 11.4473 20.7986 11.5175 20.8262 11.5669C20.84 11.5916 20.8507 11.6111 20.8583 11.6251L20.8673 11.6418L20.8701 11.647L20.871 11.6487L20.8714 11.6494C20.8715 11.6497 20.8716 11.6499 20.2084 12C20.8716 12.3501 20.8715 12.3503 20.8714 12.3506L20.871 12.3513L20.8701 12.353L20.8673 12.3582L20.8583 12.3749C20.8507 12.3889 20.84 12.4084 20.8262 12.4331C20.7986 12.4825 20.7586 12.5527 20.7064 12.6407C20.6019 12.8166 20.4482 13.0644 20.2467 13.36C19.8445 13.9498 19.2472 14.7375 18.4654 15.5275C16.9127 17.0966 14.5549 18.75 11.5 18.75C10.6399 18.75 9.83509 18.6189 9.08792 18.3956L10.1432 17.1142ZM20.2084 12L20.8716 12.3501C20.9873 12.131 20.9873 11.869 20.8716 11.6499L20.2084 12Z" fill="#3A3A3A"/>
<path d="M19 4L5 21" stroke="#3A3A3A" stroke-width="1.5" stroke-linecap="round"/>
</g>
<defs>
<clipPath id="clip0_395_1586">
<rect width="19" height="19" fill="white" transform="translate(2 3)"/>
</clipPath>
</defs>
</svg>
