<svg width="24" height="24" viewBox="0 0 24 24" fill="none" xmlns="http://www.w3.org/2000/svg">
<path d="M14.197 2H6.19702C5.66659 2 5.15788 2.21071 4.78281 2.58579C4.40774 2.96086 4.19702 3.46957 4.19702 4V20C4.19702 20.5304 4.40774 21.0391 4.78281 21.4142C5.15788 21.7893 5.66659 22 6.19702 22H18.197C18.7275 22 19.2362 21.7893 19.6112 21.4142C19.9863 21.0391 20.197 20.5304 20.197 20V8L14.197 2Z" stroke="#606060" stroke-width="1.5" stroke-linecap="round" stroke-linejoin="round"/>
<path d="M13.4307 2V8H19.3066" stroke="#606060" stroke-width="1.5" stroke-linecap="round" stroke-linejoin="round"/>
<path d="M8.496 17.06C8.028 17.06 7.632 16.972 7.308 16.796C6.988 16.62 6.744 16.37 6.576 16.046C6.408 15.722 6.324 15.338 6.324 14.894C6.324 14.558 6.372 14.256 6.468 13.988C6.568 13.72 6.71 13.492 6.894 13.304C7.082 13.112 7.31 12.966 7.578 12.866C7.846 12.762 8.15 12.71 8.49 12.71C8.714 12.71 8.938 12.738 9.162 12.794C9.39 12.846 9.604 12.936 9.804 13.064C9.872 13.108 9.916 13.162 9.936 13.226C9.96 13.29 9.964 13.356 9.948 13.424C9.932 13.488 9.902 13.544 9.858 13.592C9.814 13.64 9.758 13.67 9.69 13.682C9.626 13.694 9.554 13.678 9.474 13.634C9.322 13.546 9.168 13.482 9.012 13.442C8.856 13.402 8.682 13.382 8.49 13.382C8.194 13.382 7.944 13.442 7.74 13.562C7.536 13.678 7.382 13.848 7.278 14.072C7.178 14.296 7.128 14.57 7.128 14.894C7.128 15.386 7.246 15.76 7.482 16.016C7.718 16.272 8.068 16.4 8.532 16.4C8.692 16.4 8.854 16.384 9.018 16.352C9.182 16.32 9.342 16.276 9.498 16.22L9.348 16.562V15.284H8.688C8.588 15.284 8.51 15.258 8.454 15.206C8.402 15.154 8.376 15.084 8.376 14.996C8.376 14.904 8.402 14.834 8.454 14.786C8.51 14.738 8.588 14.714 8.688 14.714H9.678C9.778 14.714 9.854 14.742 9.906 14.798C9.962 14.85 9.99 14.926 9.99 15.026V16.484C9.99 16.572 9.972 16.646 9.936 16.706C9.904 16.766 9.85 16.81 9.774 16.838C9.598 16.902 9.396 16.956 9.168 17C8.94 17.04 8.716 17.06 8.496 17.06ZM11.27 17C11.146 17 11.05 16.966 10.982 16.898C10.914 16.826 10.88 16.728 10.88 16.604V13.142C10.88 13.014 10.912 12.918 10.976 12.854C11.044 12.786 11.14 12.752 11.264 12.752C11.388 12.752 11.482 12.786 11.546 12.854C11.614 12.918 11.648 13.014 11.648 13.142V16.346H13.388C13.496 16.346 13.578 16.374 13.634 16.43C13.694 16.486 13.724 16.566 13.724 16.67C13.724 16.774 13.694 16.856 13.634 16.916C13.578 16.972 13.496 17 13.388 17H11.27ZM14.6571 17C14.5251 17 14.4231 16.966 14.3511 16.898C14.2831 16.826 14.2491 16.724 14.2491 16.592V13.178C14.2491 13.046 14.2831 12.946 14.3511 12.878C14.4231 12.806 14.5251 12.77 14.6571 12.77H16.0971C16.3931 12.77 16.6451 12.814 16.8531 12.902C17.0611 12.99 17.2191 13.116 17.3271 13.28C17.4391 13.444 17.4951 13.64 17.4951 13.868C17.4951 14.124 17.4211 14.34 17.2731 14.516C17.1251 14.692 16.9231 14.81 16.6671 14.87V14.78C16.9631 14.824 17.1931 14.936 17.3571 15.116C17.5211 15.296 17.6031 15.53 17.6031 15.818C17.6031 16.194 17.4751 16.486 17.2191 16.694C16.9671 16.898 16.6151 17 16.1631 17H14.6571ZM14.9871 16.418H16.0671C16.3391 16.418 16.5391 16.366 16.6671 16.262C16.7951 16.154 16.8591 15.994 16.8591 15.782C16.8591 15.566 16.7951 15.406 16.6671 15.302C16.5391 15.198 16.3391 15.146 16.0671 15.146H14.9871V16.418ZM14.9871 14.564H15.9651C16.2291 14.564 16.4251 14.514 16.5531 14.414C16.6851 14.31 16.7511 14.158 16.7511 13.958C16.7511 13.758 16.6851 13.608 16.5531 13.508C16.4251 13.404 16.2291 13.352 15.9651 13.352H14.9871V14.564Z" fill="#606060"/>
</svg>
