<svg width="138" height="211" viewBox="0 0 138 211" fill="none" xmlns="http://www.w3.org/2000/svg">
<path d="M116 14V169.951L23 197" stroke="white" stroke-width="26" stroke-linecap="round" stroke-linejoin="round"/>
<path d="M132 66.6071V151.381L66.2264 170L6 151.381V66.6071L66.2264 49L132 66.6071Z" fill="url(#paint0_linear_404_4128)"/>
<path d="M132 66.6071V151.381L66.2264 170L6 151.381V66.6071L66.2264 49L132 66.6071Z" fill="url(#paint1_linear_404_4128)"/>
<path d="M6 66.6071L66.2264 86.4M6 66.6071V151.381L66.2264 170M6 66.6071L66.2264 49L132 66.6071M66.2264 86.4L132 66.6071M66.2264 86.4V170M132 66.6071V151.381L66.2264 170" stroke="#8FC47D" stroke-width="12" stroke-linecap="round" stroke-linejoin="round" stroke-dasharray="40 40"/>
<path d="M6 66.6071L66.2264 86.4M6 66.6071V151.381L66.2264 170M6 66.6071L66.2264 49L132 66.6071M66.2264 86.4L132 66.6071M66.2264 86.4V170M132 66.6071V151.381L66.2264 170" stroke="#803294" stroke-width="12" stroke-linecap="round" stroke-linejoin="round" stroke-dasharray="40 40"/>
<path d="M23 196V41.1336L115 14" stroke="white" stroke-width="26" stroke-linecap="round" stroke-linejoin="round"/>
<defs>
<linearGradient id="paint0_linear_404_4128" x1="128.195" y1="49" x2="-53.6997" y2="188.508" gradientUnits="userSpaceOnUse">
<stop stop-color="#85BD71"/>
<stop offset="1" stop-color="#215659"/>
</linearGradient>
<linearGradient id="paint1_linear_404_4128" x1="128.195" y1="49" x2="-53.6997" y2="188.508" gradientUnits="userSpaceOnUse">
<stop stop-color="#6B1B80"/>
<stop offset="1" stop-color="#3A3A3A"/>
</linearGradient>
</defs>
</svg>
