<svg width="24" height="24" viewBox="0 0 24 24" fill="none" xmlns="http://www.w3.org/2000/svg">
<rect x="4" y="9" width="16" height="12" rx="2" stroke="#606060" stroke-width="1.5" stroke-linejoin="round"/>
<path d="M17 8C17 7.34339 16.8707 6.69321 16.6194 6.08658C16.3681 5.47995 15.9998 4.92876 15.5355 4.46447C15.0712 4.00017 14.52 3.63188 13.9134 3.3806C13.3068 3.12933 12.6566 3 12 3C11.3434 3 10.6932 3.12933 10.0866 3.3806C9.47995 3.63188 8.92876 4.00017 8.46447 4.46447C8.00017 4.92876 7.63188 5.47996 7.3806 6.08658C7.12933 6.69321 7 7.34339 7 8" stroke="#606060" stroke-width="1.5" stroke-linecap="round" stroke-linejoin="round"/>
<circle cx="12" cy="13.5" r="1.5" fill="#606060"/>
<path d="M11.25 17.5C11.25 17.9142 11.5858 18.25 12 18.25C12.4142 18.25 12.75 17.9142 12.75 17.5H11.25ZM11.25 14.5V17.5H12.75V14.5H11.25Z" fill="#606060"/>
</svg>
